<?xml version="1.0" encoding="UTF-8" standalone="no"?>
<!-- Created with Inkscape (http://www.inkscape.org/) -->

<svg
   width="512"
   height="512"
   viewBox="0 0 512 512"
   version="1.1"
   id="svg1"
   inkscape:version="1.4 (86a8ad7, 2024-10-11)"
   sodipodi:docname="favicon.svg"
   xmlns:inkscape="http://www.inkscape.org/namespaces/inkscape"
   xmlns:sodipodi="http://sodipodi.sourceforge.net/DTD/sodipodi-0.dtd"
   xmlns="http://www.w3.org/2000/svg"
   xmlns:svg="http://www.w3.org/2000/svg">
  <sodipodi:namedview
     id="namedview1"
     pagecolor="#ffffff"
     bordercolor="#000000"
     borderopacity="0.25"
     inkscape:showpageshadow="2"
     inkscape:pageopacity="0.0"
     inkscape:pagecheckerboard="0"
     inkscape:deskcolor="#d1d1d1"
     inkscape:document-units="px"
     inkscape:zoom="1.6752354"
     inkscape:cx="152.81434"
     inkscape:cy="338.16143"
     inkscape:window-width="2560"
     inkscape:window-height="1494"
     inkscape:window-x="-11"
     inkscape:window-y="-11"
     inkscape:window-maximized="1"
     inkscape:current-layer="layer1" />
  <defs
     id="defs1" />
  <g
     inkscape:label="Layer 1"
     inkscape:groupmode="layer"
     id="layer1">
    <g
       id="g1"
       transform="translate(0,14.99473)">
      <path
         style="fill:#3d4b47;fill-opacity:1;stroke-width:1.21413"
         d="m 85.123957,180.74375 c 0,0 -50.465235,42.23107 -50.465235,89.89156 0,126.53001 214.858268,200.73465 335.723178,90.53246 69.41036,-63.28697 -37.37051,-210.9471 -37.37051,-210.9471 0,0 85.58181,-33.69481 72.13979,-2.68411 -21.9401,50.61572 -4.67262,92.19944 15.2641,104.87551 l 56.926,-162.564004 C 352.78809,121.10593 195.64958,81.277526 106.23518,166.52522 L 242.6262,340.44998 c 24.82277,-18.03535 -38.61916,-105.24431 -42.02323,-138.36914 -3.40077,-33.09271 19.4213,-52.95654 50.05974,-44.2027 32.28612,9.22461 76.49483,74.78599 57.32157,143.12316 -16.88304,60.17438 -52.20314,78.60682 -92.54707,71.82621 -27.9162,-4.69189 -58.6778,-17.71593 -85.59314,-52.70183 C 88.053617,265.80437 85.123957,180.74375 85.123957,180.74375 Z"
         id="path1-5-8"
         sodipodi:nodetypes="csscsccccsssssc" />
      <path
         style="fill:#859d91;fill-opacity:1;stroke-width:1.21413"
         d="m 85.123963,158.09314 c 0,0 -50.465244,42.23107 -50.465244,89.89156 0,126.53001 214.858271,200.73465 335.723181,90.53246 69.41036,-63.28697 -37.37051,-210.9471 -37.37051,-210.9471 0,0 85.58181,-33.694807 72.13979,-2.68411 -21.9401,50.61572 -4.67262,92.19944 15.2641,104.87551 l 56.926,-162.563995 C 352.78809,98.455323 195.64958,58.626928 106.23518,143.87461 L 242.6262,317.79937 c 24.82277,-18.03535 -38.61916,-105.24431 -42.02323,-138.36914 -3.40077,-33.09271 19.4213,-52.95654 50.05974,-44.2027 32.28612,9.22461 76.49483,74.78599 57.32157,143.12316 -16.88304,60.17438 -52.20314,78.60682 -92.54707,71.82621 -27.9162,-4.69189 -58.6778,-17.71593 -85.59314,-52.70183 C 88.053623,243.15376 85.123963,158.09314 85.123963,158.09314 Z"
         id="path1-5"
         sodipodi:nodetypes="csscsccccsssssc" />
    </g>
  </g>
</svg>
