<?xml version="1.0" encoding="UTF-8" standalone="no"?>
<!-- Created with Inkscape (http://www.inkscape.org/) -->

<svg
   width="210mm"
   height="50mm"
   viewBox="0 0 210 50"
   version="1.1"
   id="svg1"
   inkscape:version="1.4 (86a8ad7, 2024-10-11)"
   sodipodi:docname="txcpapi.svg"
   xmlns:inkscape="http://www.inkscape.org/namespaces/inkscape"
   xmlns:sodipodi="http://sodipodi.sourceforge.net/DTD/sodipodi-0.dtd"
   xmlns="http://www.w3.org/2000/svg"
   xmlns:svg="http://www.w3.org/2000/svg">
  <sodipodi:namedview
     id="namedview1"
     pagecolor="#ffffff"
     bordercolor="#000000"
     borderopacity="0.25"
     inkscape:showpageshadow="2"
     inkscape:pageopacity="0.0"
     inkscape:pagecheckerboard="0"
     inkscape:deskcolor="#d1d1d1"
     inkscape:document-units="mm"
     showguides="true"
     inkscape:zoom="1.0806047"
     inkscape:cx="266.51745"
     inkscape:cy="146.67714"
     inkscape:window-width="2560"
     inkscape:window-height="1494"
     inkscape:window-x="-11"
     inkscape:window-y="-11"
     inkscape:window-maximized="1"
     inkscape:current-layer="layer1">
    <sodipodi:guide
       position="-62.436107,152.78484"
       orientation="1,0"
       id="guide1"
       inkscape:locked="false" />
  </sodipodi:namedview>
  <defs
     id="defs1" />
  <g
     inkscape:label="Layer 1"
     inkscape:groupmode="layer"
     id="layer1">
    <path
       style="font-size:44.8617px;font-family:'Noto Serif Display';-inkscape-font-specification:'Noto Serif Display, Normal';fill:#f6f6e6;stroke-width:0.0767949;fill-opacity:1"
       d="m 20.682406,41.015625 v -0.448617 h 0.583203 c 0.80751,0 1.480435,-0.119631 2.018776,-0.358894 0.568248,-0.239262 0.986957,-0.598155 1.256127,-1.07668 0.269171,-0.478525 0.403756,-1.076681 0.403756,-1.794468 V 9.4329895 h -3.678659 c -1.49539,0 -2.691702,0.1794468 -3.588936,0.5383404 -0.897234,0.3588931 -1.555206,0.9720031 -1.973915,1.8393301 -0.418709,0.867326 -0.672926,2.048684 -0.762649,3.544074 l -0.08972,1.480436 h -0.448617 l 0.26917,-7.8507975 h 25.167413 l 0.26917,7.8507975 h -0.448617 l -0.08972,-1.480436 C 39.47946,13.859344 39.225241,12.677986 38.806532,11.81066 38.387823,10.943333 37.729852,10.330223 36.832618,9.9713299 35.965292,9.6124363 34.758109,9.25121 33.243682,9.4329895 31.339757,9.6615211 29.696133,10.154765 29.475299,12.094914 v 25.242052 c -0.0083,0.717739 0.134585,1.315943 0.403756,1.794468 0.26917,0.478525 0.672925,0.837418 1.211265,1.07668 0.568249,0.239263 1.256128,0.358894 2.063639,0.358894 h 0.583202 v 0.448617 z m 20.681282,0 v -0.448617 h 0.986957 c 0.598156,0 1.121543,-0.08972 1.57016,-0.26917 0.478525,-0.209355 0.942095,-0.553294 1.390712,-1.031819 0.448617,-0.478525 0.942096,-1.121542 1.480436,-1.929053 L 54.238995,25.986956 46.343336,11.855521 C 46.014351,11.227458 45.670411,10.748933 45.311517,10.419947 44.952624,10.061053 44.548868,9.806837 44.100251,9.657298 43.681542,9.507759 43.143202,9.4329895 42.48523,9.4329895 h -0.53834 v -0.448617 h 12.15752 v 0.448617 h -0.403755 c -0.837419,0 -1.465483,0.1046773 -1.884192,0.3140319 -0.388801,0.1794471 -0.583202,0.5084326 -0.583202,0.9869576 0,0.299078 0.07477,0.672925 0.224309,1.121542 0.179447,0.418709 3.917971,7.441283 4.246957,8.039439 1.66657,2.779473 5.248769,-3.523361 7.147914,-6.424421 0.418709,-0.657971 0.732741,-1.211265 0.942096,-1.659882 0.239262,-0.478525 0.358893,-0.867327 0.358893,-1.166405 0,-0.448617 -0.224308,-0.7626485 -0.672925,-0.9420953 C 63.061796,9.5227129 62.418778,9.4329895 61.551452,9.4329895 h -2.198223 v -0.448617 h 9.824712 v 0.448617 H 68.37043 c -0.568248,0 -1.091634,0.1046773 -1.570159,0.3140319 -0.478525,0.1794471 -0.942096,0.5084326 -1.390713,0.9869576 -0.448617,0.448617 -0.942096,1.091634 -1.480436,1.929053 l -6.549808,10.004158 8.658308,15.477286 c 0.358893,0.598156 0.702833,1.076681 1.031819,1.435575 0.358893,0.358893 0.762649,0.61311 1.211266,0.762649 0.448617,0.149539 0.986957,0.224308 1.615021,0.224308 h 0.358893 v 0.448617 H 58.141963 v -0.448617 h 0.53834 c 0.837419,0 1.450529,-0.08972 1.83933,-0.26917 0.418709,-0.209355 0.628064,-0.553294 0.628064,-1.031819 0,-0.299078 -0.08972,-0.672926 -0.269171,-1.121543 -0.149539,-0.448617 -4.306361,-8.18005 -4.635347,-8.748298 -1.899145,-3.394535 -6.176322,3.76865 -8.374545,7.133281 -0.26917,0.418709 -0.508432,0.807511 -0.717787,1.166404 -0.179447,0.358894 -0.328986,0.672926 -0.448617,0.942096 -0.08972,0.26917 -0.134585,0.508432 -0.134585,0.717787 0,0.448617 0.209354,0.762649 0.628063,0.942096 0.448617,0.179447 1.106589,0.26917 1.973915,0.26917 h 2.871149 v 0.448617 z m 44.816809,0.448617 c -3.080503,0 -5.652573,-0.687879 -7.716212,-2.063638 -2.063638,-1.375759 -3.618843,-3.289858 -4.665616,-5.742297 -1.016865,-2.45244 -1.525298,-5.308635 -1.525298,-8.568585 0,-3.289858 0.523386,-6.175961 1.570159,-8.658308 1.046773,-2.482347 2.631887,-4.4114 4.75534,-5.787159 2.153362,-1.4056663 4.860018,-2.1084995 8.119968,-2.1084995 1.944007,0 3.573982,0.2392624 4.889925,0.7177872 1.345851,0.4785248 2.362716,1.1065883 3.050595,1.8841913 0.717787,0.777603 1.076681,1.629975 1.076681,2.557117 0,1.016865 -0.373847,1.779514 -1.121542,2.287946 -0.747695,0.478525 -1.674837,0.717788 -2.781426,0.717788 0,-1.854284 -0.194401,-3.33472 -0.583202,-4.441309 C 90.861068,11.12278 90.247958,10.300316 89.41054,9.7918831 88.573121,9.2834505 87.481487,9.0292342 86.135636,9.0292342 c -2.093546,0 -3.798291,0.5981559 -5.114234,1.7944678 -1.315943,1.196312 -2.272993,2.975826 -2.871149,5.338542 -0.598155,2.332809 -0.897233,5.233865 -0.897233,8.70317 0,3.588935 0.314032,6.579715 0.942095,8.972339 0.657972,2.392624 1.674837,4.187092 3.050596,5.383404 1.405666,1.196312 3.230042,1.794468 5.473127,1.794468 2.03373,0 3.663705,-0.508433 4.889925,-1.525298 1.256127,-1.046773 2.198223,-2.721609 2.826287,-5.02451 0.388801,0.149539 0.672925,0.373848 0.852372,0.672926 0.179447,0.26917 0.26917,0.61311 0.26917,1.031819 0,0.568248 -0.194401,1.166404 -0.583202,1.794468 -0.388801,0.598155 -0.972003,1.166403 -1.749606,1.704744 -0.777603,0.538341 -1.749606,0.972004 -2.91601,1.300989 -1.166405,0.328986 -2.542164,0.493479 -4.127277,0.493479 z M 98.9661,41.015625 v -0.448617 h 0.583202 c 0.807508,0 1.480438,-0.119631 2.018778,-0.358894 0.56825,-0.239262 0.98696,-0.598155 1.25613,-1.07668 0.26917,-0.478525 0.40375,-1.076681 0.40375,-1.794468 V 12.483585 c 0,-0.687879 -0.13458,-1.256128 -0.40375,-1.704745 -0.26917,-0.448617 -0.68788,-0.777602 -1.25613,-0.9869569 -0.53834,-0.2392624 -1.21127,-0.3588936 -2.018778,-0.3588936 H 98.9661 v -0.448617 h 12.60614 c 3.76838,0 6.5498,0.8374185 8.34427,2.5122555 1.79447,1.644929 2.6917,3.932875 2.6917,6.863839 0,1.345851 -0.20935,2.631887 -0.62806,3.858106 -0.41871,1.196312 -1.10659,2.272993 -2.06364,3.230043 -0.92714,0.957049 -2.16831,1.719698 -3.72352,2.287946 -1.52529,0.538341 -3.41205,0.529615 -5.60771,0.807511 -1.32063,0.167147 -2.7746,2.141728 -2.91286,3.224608 l 0.0866,5.568285 c 0.0112,0.7177 0.13459,1.315943 0.40376,1.794468 0.26917,0.478525 0.67292,0.837418 1.21126,1.07668 0.56825,0.239263 1.25613,0.358894 2.06364,0.358894 h 0.5832 v 0.448617 z m 11.17056,-12.920169 c 1.37576,0 2.54217,-0.179447 3.49922,-0.53834 0.95705,-0.358894 1.73465,-0.912188 2.3328,-1.659883 0.62807,-0.777603 1.07668,-1.76456 1.34585,-2.960872 0.29908,-1.22622 0.44862,-2.691702 0.44862,-4.396447 0,-2.183269 -0.23926,-3.932875 -0.71779,-5.248818 -0.44861,-1.345851 -1.18135,-2.317855 -2.19822,-2.916011 -1.01687,-0.6280637 -2.36272,-0.9420955 -4.03755,-0.9420955 h -3.0506 V 28.095456 Z m 11.97811,12.920169 v -0.448617 h 1.30099 c 0.65797,0 1.21127,-0.104677 1.65988,-0.314032 0.44862,-0.209355 0.83742,-0.568248 1.16641,-1.076681 0.32899,-0.508432 0.64302,-1.211265 0.94209,-2.108499 l 9.77985,-28.0834235 h 2.28795 l 11.26029,29.2049655 c 0.23926,0.598156 0.47852,1.076681 0.71778,1.435574 0.23927,0.328986 0.50844,0.568249 0.80751,0.717788 0.32899,0.149539 0.70284,0.224308 1.12155,0.224308 h 0.5832 v 0.448617 H 141.4053 v -0.448617 h 1.03182 c 1.1365,0 1.95896,-0.134585 2.46739,-0.403755 0.50843,-0.269171 0.76265,-0.747696 0.76265,-1.435575 0,-0.179447 -0.015,-0.358893 -0.0449,-0.53834 -0.0299,-0.209355 -0.0748,-0.433663 -0.13458,-0.672925 -0.0299,-0.239263 -0.0435,-0.248632 -0.12484,-0.831512 -0.44689,-1.889757 -0.98982,-3.324583 -2.25172,-4.788844 -3.13569,-2.808839 -8.34667,-2.488791 -12.74184,-2.499612 l -2.46739,7.043287 c -0.0897,0.239262 -0.16449,0.478524 -0.22431,0.717787 -0.0598,0.239263 -0.10466,0.463571 -0.13458,0.672925 -0.0299,0.179447 -0.0449,0.358894 -0.0449,0.538341 0,0.807511 0.35889,1.375759 1.07668,1.704744 0.71779,0.328986 1.86924,0.493479 3.45435,0.493479 h 1.03182 v 0.448617 z m 8.38914,-12.067797 h 11.84349 l -3.27491,-8.748031 c -0.3888,-1.016865 -0.74769,-1.988869 -1.07668,-2.91601 -0.32899,-0.927142 -0.64302,-1.809422 -0.94209,-2.646841 -0.26917,-0.867326 -0.52339,-1.704744 -0.76265,-2.512255 -0.20935,0.657972 -0.40375,1.271082 -0.5832,1.83933 l -0.53834,1.615021 c -0.17945,0.538341 -0.3888,1.121543 -0.62807,1.749606 -0.20935,0.598156 -0.44861,1.300989 -0.71778,2.1085 z m 24.9431,12.067797 v -0.448617 h 0.5832 c 0.80751,0 1.48044,-0.119631 2.01878,-0.358894 0.56825,-0.239262 0.98696,-0.598155 1.25613,-1.07668 0.26917,-0.478525 0.40375,-1.076681 0.40375,-1.794468 V 12.483585 c 0,-0.687879 -0.13458,-1.256128 -0.40375,-1.704745 -0.26917,-0.448617 -0.68788,-0.777602 -1.25613,-0.9869569 -0.53834,-0.2392624 -1.21127,-0.3588936 -2.01878,-0.3588936 h -0.5832 v -0.448617 h 12.60614 c 3.76838,0 6.5498,0.8374185 8.34427,2.5122555 1.79447,1.644929 2.69171,3.932875 2.69171,6.863839 0,1.345851 -0.20936,2.631887 -0.62807,3.858106 -0.41871,1.196312 -1.10659,2.272993 -2.06364,3.230043 -0.92714,0.957049 -2.16831,1.719698 -3.72352,2.287946 -1.52529,0.538341 -3.39453,0.807511 -5.60771,0.807511 h -2.82629 v 8.792893 c 0,0.717787 0.13459,1.315943 0.40376,1.794468 0.26917,0.478525 0.67292,0.837418 1.21127,1.07668 0.56825,0.239263 1.25612,0.358894 2.06363,0.358894 h 0.58321 v 0.448617 z m 11.17056,-12.920169 c 2.16239,0.0046 2.54217,-0.179447 3.49922,-0.53834 0.95705,-0.358894 1.73465,-0.912188 2.3328,-1.659883 0.62807,-0.777603 1.07669,-1.76456 1.34586,-2.960872 0.29907,-1.22622 0.44861,-2.691702 0.44861,-4.396447 0,-2.183269 -0.23926,-3.932875 -0.71778,-5.248818 -0.44862,-1.345851 -1.18136,-2.317855 -2.19823,-2.916011 -1.01687,-0.6280637 -2.36272,-0.9420955 -4.03755,-0.9420955 h -3.0506 c -0.10099,5.4525435 -0.0394,10.7694885 0,16.3576295 0.5148,1.679337 1.59589,2.303176 2.37767,2.304837 z m 15.92591,12.920169 v -0.448617 h 0.5832 c 0.80751,0 1.48044,-0.119631 2.01878,-0.358894 0.56825,-0.239262 0.98695,-0.598155 1.25612,-1.07668 0.26917,-0.478525 0.40376,-1.076681 0.40376,-1.794468 V 12.483585 c 0,-0.687879 -0.13459,-1.256128 -0.40376,-1.704745 -0.26917,-0.448617 -0.68787,-0.777602 -1.25612,-0.9869569 -0.53834,-0.2392624 -1.21127,-0.3588936 -2.01878,-0.3588936 h -0.5832 v -0.448617 h 13.05475 v 0.448617 h -0.5832 c -0.80751,0 -1.49539,0.1196312 -2.06364,0.3588936 -0.53834,0.2392629 -0.94209,0.5981559 -1.21126,1.0766809 -0.26917,0.478525 -0.40376,1.076681 -0.40376,1.794468 v 24.673934 c 0,0.717787 0.13459,1.315943 0.40376,1.794468 0.26917,0.478525 0.67292,0.837418 1.21126,1.07668 0.56825,0.239263 1.25613,0.358894 2.06364,0.358894 h 0.5832 v 0.448617 z"
       id="text1"
       aria-label="TXCPAPI"
       sodipodi:nodetypes="ccscsscsssccccccccscscsscscccccscscccccsccccscsccccscsccccsccccccssccccscscccccscscccsscsscsccscccssscsccscccscsssccscsssscsccscscccscsscscccssccsccsccsccsssccccccsccccsssccccccscsssccccccscccscccccscsssscsccscscccscsscscccssccsccsccsccscsssscsccccscsssscsccc" />
  </g>
</svg>
